<?xml version="1.0" encoding="UTF-8"?>
<svg id="Layer_1" data-name="Layer 1" xmlns="http://www.w3.org/2000/svg" viewBox="0 0 81.17 95.07">
  <defs>
    <style>
      .cls-1 {
        fill: none;
        stroke: #00a14b;
        stroke-miterlimit: 10;
        stroke-width: 4px;
      }

      .cls-2 {
        fill: #be1e2d;
        stroke-width: 0px;
      }
    </style>
  </defs>
  <path class="cls-1" d="M52.68,6.88l-14.11-2.19c-.7-.11-1.22.62-.89,1.24,1.66,3.17,5.84,10.36,10.11,11.19"/>
  <path class="cls-2" d="M40.43,48.74c1.49-1.69,2.97-3.4,4.48-5.08,4.15-4.58,8.47-8.99,13.31-12.86,2.5-2,5.11-3.82,8.04-5.13,1.35-.6,2.74-1.06,4.22-1.26,3.55-.47,6.33.77,8.27,3.79,1.19,1.85,1.76,3.93,2.11,6.08.14.88.25,1.77.3,2.66.08,1.42-.81,2.46-2.11,2.55-1.28.09-2.26-.85-2.47-2.24-.22-1.49-.5-2.97-.81-4.44-.11-.53-.35-1.04-.59-1.53-1.01-2.04-2.43-2.73-4.65-2.18-1.02.26-2.03.63-2.98,1.09-3.12,1.49-5.82,3.62-8.42,5.86-5.89,5.08-11.08,10.84-16.07,16.79-.57.68-1.1,1.41-1.71,2.06-.47.5-.52.93-.21,1.55,2.24,4.47,4.38,9,6.7,13.44,2.28,4.35,4.88,8.51,7.88,12.41,1.43,1.85,2.96,3.61,4.77,5.11,1.03.86,2.14,1.6,3.45,1.99,1.08.33,2.03.1,2.9-.57.95-.73,1.58-1.71,2.15-2.73,1-1.81,1.66-3.76,2.22-5.74.87-3.14,1.47-6.34,1.92-9.57.04-.27.08-.54.14-.81.31-1.34,1.34-2.05,2.64-1.85,1.21.19,2,1.21,1.88,2.53-.09.95-.26,1.9-.41,2.85-.64,3.96-1.46,7.89-2.89,11.66-.73,1.93-1.62,3.78-2.91,5.42-.99,1.26-2.15,2.31-3.64,2.95-2.29.99-4.55.76-6.77-.24-2.32-1.05-4.21-2.69-5.96-4.5-2.36-2.46-4.38-5.19-6.25-8.03-4-6.05-7.34-12.47-10.45-19.01-.16-.33-.33-.66-.57-1.13-.13.3-.23.46-.26.64-.43,3.34-.73,6.69-.61,10.05.13,3.58.59,7.11,1.91,10.47,1.48,3.81,3.89,6.83,7.49,8.84,1.28.72,1.72,1.83,1.25,3-.45,1.14-1.71,1.73-2.87,1.31-.41-.15-.81-.37-1.19-.6-4.56-2.72-7.54-6.71-9.28-11.67-1.2-3.43-1.74-6.97-1.88-10.59-.27-7.15.78-14.16,2.4-21.09,2.46-10.55,6.12-20.7,10.31-30.67.52-1.23,1.06-2.45,1.57-3.69.57-1.39,1.09-2.8,1.7-4.17.3-.68.78-1.28,1.09-1.96.4-.87.63-1.81,1.07-2.65,1.16-2.25,2.36-4.48,3.6-6.68.63-1.12,1.93-1.45,3.04-.88,1.04.54,1.5,1.77,1.07,2.91-.11.29-.28.55-.42.83-5.99,11.67-11.19,23.68-15.22,36.18-.82,2.54-1.52,5.13-2.27,7.69-.07.26-.12.52-.17.78.05.02.11.05.16.07Z"/>
  <path class="cls-2" d="M23.5,31.55c-.31.18-.53.28-.72.42-4.18,2.99-8.39,5.96-12.54,9-2.66,1.94-4.48,4.51-5.25,7.76-.45,1.9-.34,3.82-.3,5.74.01.51.06,1.03.02,1.54-.08,1.16-1.02,2.01-2.18,2.04-1.19.03-2.21-.74-2.33-1.88-.32-3.12-.37-6.23.5-9.29,1.13-3.98,3.45-7.15,6.74-9.59,3.31-2.45,6.65-4.86,10.02-7.22,6.15-4.31,12.34-8.57,18.51-12.86.25-.18.5-.36.77-.51,1.1-.62,2.43-.34,3.1.66.69,1.03.5,2.32-.49,3.13-.21.17-.45.32-.67.47-3.33,2.3-6.66,4.6-9.99,6.9-.28.19-.55.4-.84.62.28,2.24.56,4.44.82,6.65.32,2.76.66,5.51.92,8.28.37,3.86.73,7.71.99,11.58.45,6.64.7,13.3.42,19.95-.15,3.66-.47,7.32-1.38,10.9-.44,1.73-1.02,3.42-2,4.94-.68,1.06-1.53,1.94-2.66,2.51-1.53.77-3.1.77-4.69.25-1.43-.46-2.64-1.29-3.78-2.24-1.72-1.43-3.21-3.1-4.59-4.85-3.84-4.86-6.98-10.18-10.03-15.55-.85-1.49-.04-2.81.84-3.29,1.17-.64,2.46-.2,3.22,1.09.09.15.16.3.25.45,2.4,4.24,4.9,8.42,7.76,12.37,1.45,2,2.96,3.96,4.82,5.61.79.7,1.66,1.33,2.58,1.84,1.06.59,1.75.42,2.33-.65.6-1.1,1.14-2.29,1.41-3.5.47-2.1.88-4.24,1.02-6.38.25-3.83.39-7.67.36-11.51-.04-5.45-.35-10.9-.87-16.33-.43-4.47-.86-8.94-1.31-13.41-.17-1.7-.41-3.4-.63-5.1-.02-.13-.07-.25-.15-.52Z"/>
</svg>